# xmcd
#
# Track frame offsets:
#	150
#	18655
#	31417
#	42635
#	54430
#	65720
#	76150
#	86937
#	96857
#	106355
#	118197
#	128650
#	141517
#	152632
#	163465
#	177745
#
# Disc length: 2495 seconds
#
# Revision: 0
# Processed by: cddbd v1.5.2PL0 Copyright (c) Steve Scherf et al.
# Submitted via: audiograbber 1.83.01
#
DISCID=ed09bd10
DTITLE=Brook Benton - Anthology  [CD1)
DYEAR=1900
DGENRE=Oldies
TTITLE0=Rainy Night In Georgia
TTITLE1=The Boll Weevil Song
TTITLE2=It's Just A Matter Of Time
TTITLE3=Hotel Happiness
TTITLE4=So Many Ways
TTITLE5=My True Confession
TTITLE6=I Want To Thank You
TTITLE7=Lie To Me
TTITLE8=Shadrack
TTITLE9=Kiddio
TTITLE10=Fools Rush In
TTITLE11=Think Twice
TTITLE12=Revenge
TTITLE13=Frankie and Johnnie
TTITLE14=For My Baby
TTITLE15=So Close
EXTD=
EXTT0=
EXTT1=
EXTT2=
EXTT3=
EXTT4=
EXTT5=
EXTT6=
EXTT7=
EXTT8=
EXTT9=
EXTT10=
EXTT11=
EXTT12=
EXTT13=
EXTT14=
EXTT15=
PLAYORDER=
